<svg width="500" height="500" xmlns="http://www.w3.org/2000/svg"><rect width="100%" height="100%" fill="transparent"/><g fill="#F59E0B" opacity="0.3"><rect x="25" y="25" width="10" height="10" transform="rotate(45, 30, 30)"/><rect x="85" y="45" width="8" height="8" transform="rotate(30, 90, 50)"/><rect x="155" y="85" width="12" height="12" transform="rotate(15, 160, 90)"/><rect x="225" y="35" width="6" height="6" transform="rotate(60, 230, 40)"/><rect x="315" y="125" width="10" height="10" transform="rotate(20, 320, 130)"/><rect x="385" y="65" width="8" height="8" transform="rotate(75, 390, 70)"/><rect x="25" y="195" width="10" height="10" transform="rotate(10, 30, 200)"/><rect x="95" y="235" width="6" height="6" transform="rotate(50, 100, 240)"/><rect x="185" y="275" width="12" height="12" transform="rotate(40, 190, 280)"/><rect x="245" y="185" width="8" height="8" transform="rotate(25, 250, 190)"/><rect x="335" y="245" width="10" height="10" transform="rotate(70, 340, 250)"/><rect x="405" y="295" width="6" height="6" transform="rotate(5, 410, 300)"/><rect x="45" y="365" width="12" height="12" transform="rotate(55, 50, 370)"/><rect x="115" y="325" width="8" height="8" transform="rotate(35, 120, 330)"/><rect x="195" y="385" width="10" height="10" transform="rotate(65, 200, 390)"/><rect x="285" y="345" width="6" height="6" transform="rotate(15, 290, 350)"/><rect x="345" y="385" width="12" height="12" transform="rotate(45, 350, 390)"/><rect x="425" y="425" width="8" height="8" transform="rotate(30, 430, 430)"/></g><g fill="#EA580C" opacity="0.3"><rect x="55" y="15" width="8" height="8" transform="rotate(15, 60, 20)"/><rect x="135" y="65" width="10" height="10" transform="rotate(60, 140, 70)"/><rect x="205" y="25" width="6" height="6" transform="rotate(25, 210, 30)"/><rect x="285" y="85" width="12" height="12" transform="rotate(50, 290, 90)"/><rect x="365" y="35" width="8" height="8" transform="rotate(70, 370, 40)"/><rect x="435" y="115" width="10" height="10" transform="rotate(10, 440, 120)"/><rect x="45" y="175" width="6" height="6" transform="rotate(40, 50, 180)"/><rect x="125" y="215" width="12" height="12" transform="rotate(30, 130, 220)"/><rect x="215" y="255" width="8" height="8" transform="rotate(65, 220, 260)"/><rect x="275" y="175" width="10" height="10" transform="rotate(5, 280, 180)"/><rect x="365" y="225" width="6" height="6" transform="rotate(55, 370, 230)"/><rect x="435" y="275" width="12" height="12" transform="rotate(35, 440, 280)"/><rect x="25" y="325" width="8" height="8" transform="rotate(20, 30, 330)"/><rect x="95" y="385" width="10" height="10" transform="rotate(75, 100, 390)"/><rect x="175" y="335" width="6" height="6" transform="rotate(45, 180, 340)"/><rect x="265" y="375" width="12" height="12" transform="rotate(10, 270, 380)"/><rect x="335" y="425" width="8" height="8" transform="rotate(60, 340, 430)"/><rect x="405" y="365" width="10" height="10" transform="rotate(30, 410, 370)"/></g></svg>
