<svg width="500" height="500" xmlns="http://www.w3.org/2000/svg"><rect width="500" height="500" fill="transparent"/><circle cx="50" cy="50" r="5" fill="#F59E0B"/><rect x="100" y="70" width="10" height="10" fill="#D97706" transform="rotate(30 105 75)"/><circle cx="200" cy="50" r="4" fill="#B45309"/><rect x="250" y="90" width="8" height="8" fill="#92400E" transform="rotate(45 254 94)"/><circle cx="300" cy="40" r="6" fill="#F59E0B"/><rect x="350" y="60" width="12" height="12" fill="#D97706" transform="rotate(15 356 66)"/><circle cx="420" cy="75" r="5" fill="#B45309"/><rect x="450" y="30" width="7" height="7" fill="#92400E" transform="rotate(60 453.5 33.5)"/><circle cx="30" cy="150" r="4" fill="#F59E0B"/><rect x="80" y="120" width="9" height="9" fill="#D97706" transform="rotate(75 84.5 124.5)"/><circle cx="150" cy="180" r="6" fill="#B45309"/><rect x="230" y="140" width="10" height="10" fill="#92400E" transform="rotate(20 235 145)"/><circle cx="270" cy="170" r="5" fill="#F59E0B"/><rect x="330" y="130" width="8" height="8" fill="#D97706" transform="rotate(40 334 134)"/><circle cx="380" cy="160" r="4" fill="#B45309"/><rect x="450" y="150" width="11" height="11" fill="#92400E" transform="rotate(55 455.5 155.5)"/><circle cx="40" cy="270" r="6" fill="#F59E0B"/><rect x="110" y="240" width="10" height="10" fill="#D97706" transform="rotate(25 115 245)"/><circle cx="180" cy="260" r="5" fill="#B45309"/><rect x="220" y="230" width="7" height="7" fill="#92400E" transform="rotate(50 223.5 233.5)"/><circle cx="290" cy="250" r="4" fill="#F59E0B"/><rect x="340" y="270" width="9" height="9" fill="#D97706" transform="rotate(35 344.5 274.5)"/><circle cx="410" cy="230" r="6" fill="#B45309"/><rect x="460" y="260" width="8" height="8" fill="#92400E" transform="rotate(70 464 264)"/><circle cx="50" cy="330" r="5" fill="#F59E0B"/><rect x="100" y="360" width="11" height="11" fill="#D97706" transform="rotate(15 105.5 365.5)"/><circle cx="170" cy="340" r="4" fill="#B45309"/><rect x="230" y="320" width="9" height="9" fill="#92400E" transform="rotate(60 234.5 324.5)"/><circle cx="290" cy="350" r="6" fill="#F59E0B"/><rect x="360" y="330" width="10" height="10" fill="#D97706" transform="rotate(40 365 335)"/><circle cx="420" cy="360" r="5" fill="#B45309"/><rect x="470" y="340" width="8" height="8" fill="#92400E" transform="rotate(25 474 344)"/><circle cx="30" cy="420" r="6" fill="#F59E0B"/><rect x="90" y="450" width="9" height="9" fill="#D97706" transform="rotate(55 94.5 454.5)"/><circle cx="160" cy="430" r="4" fill="#B45309"/><rect x="220" y="450" width="10" height="10" fill="#92400E" transform="rotate(30 225 455)"/><circle cx="280" cy="420" r="5" fill="#F59E0B"/><rect x="350" y="440" width="7" height="7" fill="#D97706" transform="rotate(45 353.5 443.5)"/><circle cx="410" cy="430" r="6" fill="#B45309"/><rect x="460" y="450" width="11" height="11" fill="#92400E" transform="rotate(20 465.5 455.5)"/></svg>
