<svg width="100" height="100" xmlns="http://www.w3.org/2000/svg"><rect width="100" height="100" fill="#FFFBEB"/><circle cx="10" cy="10" r="2" fill="#F59E0B"/><circle cx="30" cy="10" r="2" fill="#F59E0B"/><circle cx="50" cy="10" r="2" fill="#F59E0B"/><circle cx="70" cy="10" r="2" fill="#F59E0B"/><circle cx="90" cy="10" r="2" fill="#F59E0B"/><circle cx="10" cy="30" r="2" fill="#F59E0B"/><circle cx="30" cy="30" r="2" fill="#F59E0B"/><circle cx="50" cy="30" r="2" fill="#F59E0B"/><circle cx="70" cy="30" r="2" fill="#F59E0B"/><circle cx="90" cy="30" r="2" fill="#F59E0B"/><circle cx="10" cy="50" r="2" fill="#F59E0B"/><circle cx="30" cy="50" r="2" fill="#F59E0B"/><circle cx="50" cy="50" r="2" fill="#F59E0B"/><circle cx="70" cy="50" r="2" fill="#F59E0B"/><circle cx="90" cy="50" r="2" fill="#F59E0B"/><circle cx="10" cy="70" r="2" fill="#F59E0B"/><circle cx="30" cy="70" r="2" fill="#F59E0B"/><circle cx="50" cy="70" r="2" fill="#F59E0B"/><circle cx="70" cy="70" r="2" fill="#F59E0B"/><circle cx="90" cy="70" r="2" fill="#F59E0B"/><circle cx="10" cy="90" r="2" fill="#F59E0B"/><circle cx="30" cy="90" r="2" fill="#F59E0B"/><circle cx="50" cy="90" r="2" fill="#F59E0B"/><circle cx="70" cy="90" r="2" fill="#F59E0B"/><circle cx="90" cy="90" r="2" fill="#F59E0B"/></svg>
